<?xml version="1.0" encoding="utf-8"?>
<!-- Generator: Adobe Illustrator 23.0.3, SVG Export Plug-In . SVG Version: 6.00 Build 0)  -->
<svg version="1.1" id="Layer_1" xmlns="http://www.w3.org/2000/svg" xmlns:xlink="http://www.w3.org/1999/xlink" x="0px" y="0px" viewBox="0 0 55.4 59.8" style="enable-background:new 0 0 55.4 59.8;" xml:space="preserve">
  <style type="text/css">
  .st0 {
    fill: #FFFFFF;
  }

  </style>
  <path class="st0" d="M52.3,12.1h-7c0.5-0.7,0.8-1.4,1.1-2.2c0.6-2,0.4-4.1-0.6-5.9s-2.5-3.1-4.5-3.7s-4.1-0.4-6,0.6
  c-3.6,2-6.2,6.1-7.6,9c-1.4-2.9-4-7.1-7.6-9c-3.8-2-8.5-0.6-10.5,3.1c-1.4,2.7-1.2,5.8,0.5,8.1h-7c-1.7,0-3.1,1.4-3.1,3.1v9.4
  c0,1.7,1.4,3.1,3.1,3.1H4v26.1c0,3.3,2.7,6,6,6h35.5c3.3,0,6-2.7,6-6V27.7h0.8c1.7,0,3.1-1.4,3.1-3.1v-9.4
  C55.6,13.5,54.1,12.1,52.3,12.1z M36.6,2.9c1.3-0.7,2.7-0.8,4.1-0.4c1.3,0.4,2.4,1.3,3.1,2.6s0.8,2.7,0.4,4.1
  c-0.4,1.2-1.1,2.2-2.2,2.9H29.4C30.6,9.5,33.1,4.9,36.6,2.9z M11.7,5.1c1.5-2.6,4.7-3.6,7.3-2.2c3.5,1.9,6,6.6,7.1,9.1H13.6
  C11.2,10.6,10.4,7.5,11.7,5.1z M26.6,27.7v13.7H6.5V27.7H26.6z M6.5,53.8v-10h20.2v13.7H10.1C8.1,57.5,6.5,55.8,6.5,53.8z
  M45.6,57.5H28.9V43.8h20.2v10C49.1,55.8,47.6,57.5,45.6,57.5z M49.1,41.4H28.9V27.7h20.2C49.1,27.7,49.1,41.4,49.1,41.4z
  M53.1,24.6c0,0.4-0.3,0.7-0.7,0.7h-2l0,0l0,0H27.8l0,0l0,0H5.2l0,0l0,0h-2c-0.4,0-0.7-0.3-0.7-0.7v-9.4c0-0.4,0.3-0.7,0.7-0.7h49.2
  c0.4,0,0.7,0.3,0.7,0.7C53.2,15.2,53.2,24.6,53.1,24.6z" />
</svg>
