<?xml version="1.0" encoding="utf-8"?>
<!-- Generator: Adobe Illustrator 23.0.3, SVG Export Plug-In . SVG Version: 6.00 Build 0)  -->
<svg version="1.1" id="Layer_1" xmlns="http://www.w3.org/2000/svg" xmlns:xlink="http://www.w3.org/1999/xlink" x="0px" y="0px" viewBox="0 0 70 59.5" style="enable-background:new 0 0 70 59.5;" xml:space="preserve">
  <style type="text/css">
  .st0 {
    fill: #FDC305;
  }

  .st1 {
    fill: #F06351;
  }

  .st2 {
    fill: #E55645;
  }

  .st3 {
    fill: #111111;
  }

  </style>
  <path class="st0" d="M59.8,24C54.3,11,39.3,4.8,26.3,10.2S7.1,30.7,12.5,43.7c3.6,8.6,11.3,14.2,19.9,15.5c-0.6-2.1-1.2-4.4-1.7-6.9
  c1.5,1,3.1,1.8,4.8,2.6l0,0c0,0,0.1,2.2,0.3,4.6c1.8,0,3.6-0.1,5.3-0.5c0-0.2,0-0.4,0-0.8c0.3-1.9,1.1-5.2,1.2-7.4
  c1.1-1.1,2.1-2.3,2.9-3.7l0,0c0,0.1,0,0.3-0.1,0.4c-0.6,4.3-1.7,8.8-2.4,10.1c-0.2,0.4-0.5,0.9-0.8,1.2c1.4-0.3,2.7-0.8,4.1-1.3
  C59.1,52,65.2,37,59.8,24z M58.3,27.8c-0.4,0.4-1.3,0.7-1.5-0.6c-0.2-1.3-0.2-2.2-0.2-2.2s-1.9-3.4-2.7-3.5c-0.7,0-5.8,3.5-7.2,5
  c-1.2,1.3-1.4,1.2-1.4,3.5c0,1.7,0.2,8.2,0.1,13.1l0,0l0,0c0,0-2.2,0.6-8.1,2.2c-6,1.6-7.8,1.8-7.8,1.8l-1-5.8l0,0l0,0l0,0l0,0l0,0
  l0,0L25.8,28c0,0-3.8-1.4-5.2-1.8s-2.3-0.7-4,0.6c-1.8,1.3-1.7,3.9-1.7,3.9s0.4,1,0.5,1.4c0,0.5-1.2,0.4-2,0.4s-0.9-1.4-0.3-3.1
  c0.6-1.7,1.9-3.7,1.9-3.7s1.2-2.3,2.1-2.9c0,0,0.1-0.3,1.3-0.2c1.1,0.1,7.3,0.4,7.3,0.4l0.1-2.3c6.7-0.9,13.5-1.4,20.2-1.3
  c0,0.6,0,1.2-0.1,1.8c0,0,4.4-2,8.1-2c0,0,0.4,0,0.8,0.4c0.3,0.4,2.4,3,2.7,3.4c0.2,0.4,1.2,1.7,1.8,3C59.2,26,58.7,27.3,58.3,27.8z
  " />
  <path class="st1" d="M56.4,21.7c0.5,0.6,0.9,1.1,1,1.3c0.2,0.4,1.2,1.7,1.8,3c0,0-0.4,1.3-0.9,1.8s-1.3,0.7-1.5-0.6
  c-0.2-1.3-0.2-2.2-0.2-2.2s-1.9-3.4-2.7-3.5c-0.7,0-5.8,3.5-7.2,5c-1.2,1.3-1.4,1.2-1.4,3.5c0,1.5,0.2,6.6,0.1,11.2
  c1.8,0.2,4.5,0.7,5.3,1.9c0,0-0.3-7.2,7.8-3.4c0,0,0.3-9.8,11.5-7.3C70.1,32.4,64.4,25.4,56.4,21.7z" />
  <path class="st1" d="M45.8,19.4c0.1-8.5-1.4-16.5-1.4-16.5s-0.1-1.3-0.9-0.2c-0.7,1.1-1.2,4-1.2,4c-7.4-0.6-12.8,0.2-12.8,0.2
  c-0.8-2.7-2.2-4-2.9-3.7c-0.6,0.3-0.7,3.3-0.7,3.3l-0.3,14.2C32.3,19.8,39.1,19.3,45.8,19.4z" />
  <path class="st2" d="M45.3,47.1c0.1-1.1,0.2-2.5,0.2-4.1c0,0-2.2,0.6-8.1,2.2c-6,1.6-7.8,1.8-7.8,1.8l1.1,5c0,0.1,0,0.2,0.1,0.3
  c1.5,1,3.1,1.8,4.8,2.6c4.4-2.2,6.9-4.1,6.9-4.1s0,0,0,0.1C43.5,49.8,44.5,48.5,45.3,47.1z" />
  <path d="M31.9,16.2c0-0.1,1,0.7,1.4,0.9c0.4,0.2,0.6,0.4,0.6,0.6S33.6,18,33.3,18c-0.3,0-0.9-0.1-1-0.3c0,0,0.6,0,0.9,0h0.3
  C33.6,17.8,32.2,16.7,31.9,16.2z" />
  <path d="M39.4,16.3l-1.1,1.3c0,0.1-0.2,0.3,0.2,0.3s1.1-0.2,1.2-0.3c0.1-0.1,0.1-0.2-0.1-0.2c-0.2,0-0.7,0-1,0.1L39.4,16.3
  C39.5,16.3,39.5,16.2,39.4,16.3z" />
  <path d="M36.3,22.4c0,0,0.8-0.4,1.1-1c0.3-0.7,0-0.9-0.4-1s-1.3,0-1.7,0.3c-0.4,0.4-0.3,0.7-0.1,1C35.4,22,36,22.4,36.3,22.4z" />
  <path class="st1" d="M35.8,23.7c0,0-0.2,0.4-0.5,0.6c-0.2,0.2-0.6,0.4-1,0.4c-0.6,0-1.1-0.2-1.5-0.4c-0.2-0.1-0.4-0.3-0.5-0.4
  c-0.2-0.2-0.4-0.3-0.4-0.3s0.8,4.1,2.6,4.8c1.8,0.7,2.2-0.8,2.2-1.1c0-0.3,0-2.1-0.8-3.2C36,23.6,35.9,23.8,35.8,23.7z" />
  <g>
    <path d="M34.2,24.8L34.2,24.8c-1.3,0-2.3-1.4-2.4-1.4c0-0.1,0-0.2,0-0.2c0.1,0,0.2,0,0.2,0s1,1.3,2.1,1.3l0,0c0.6,0,1.1-0.3,1.6-1
    l0.1-0.2l0.1,0.2c0,0,0.4,0.8,1,0.8c0.5,0,1.1-0.4,1.6-1.3c0-0.1,0.1-0.1,0.2,0c0.1,0,0.1,0.1,0,0.2c-0.6,1-1.3,1.5-1.9,1.4
    c-0.6,0-0.9-0.5-1.1-0.8C35.4,24.5,34.8,24.8,34.2,24.8z" />
  </g>
  <circle class="st0" cx="36.2" cy="34.5" r="3.8" />
  <path class="st3" d="M41.1,31.5L38,32.8l1.1-5.6L31.6,37l3.1-1.3l-1.1,5.6L41.1,31.5z M33.7,35.3l4.1-5.4l-0.8,4l2-0.8l-4.1,5.4
  l0.8-4L33.7,35.3z" />
  <circle class="st3" cx="32.3" cy="32.7" r="1.1" />
  <circle class="st3" cx="38.9" cy="37.1" r="0.8" />
  <circle class="st3" cx="39.8" cy="35.4" r="0.3" />
  <path class="st1" d="M45.8,21.2c0,0-2.6,2.3-5.1,5.2s-5.3,4.9-5.3,4.9c-0.2-0.5-1.6-1.5-1.6-1.5s-3.1-2.1-5.2-3.8
  c-1.2-1-2.4-2.2-3.1-3c-0.3,0-1.1-0.1-2-0.1c4.7,7,12,8.8,12,8.8c0.9-0.1,3.3-1.9,5.1-3.3c1.8-1.4,4.8-4.5,6-5.9
  c0.6-0.7,0.9-1.4,1.1-2C46.5,20.8,45.8,21.2,45.8,21.2z" />
  <polygon class="st0" points="65.1,3.5 56.7,12.9 55.4,10.9 63.6,0 " />
  <polygon class="st0" points="62.5,17.3 68.1,13.1 67.3,9.4 61.9,14.2 " />
  <polygon class="st0" points="59.8,49.4 66,52.6 69,50.2 62.3,47.5 " />
  <polygon class="st0" points="1.9,6 4.9,2.6 14.2,11.6 13,13.9 " />
  <polygon class="st0" points="7.3,16.3 2.6,13.2 0.2,17 5.3,19.4 " />
  <polygon class="st0" points="13.8,52.6 9.3,55.9 12.1,59.5 16.1,55.5 " />
  <path class="st1" d="M25.8,28c0,0-3.8-1.4-5.2-1.8s-2.3-0.7-4,0.6c-1.8,1.3-1.7,3.9-1.7,3.9s0.4,1,0.5,1.4c0,0.5-1.2,0.4-2,0.4
  s-0.9-1.4-0.3-3.1c0.6-1.7,1.9-3.7,1.9-3.7c-5.4,2.8-15,9.4-15,9.4s2.9-0.3,8.2,0.2s5,4.7,5,4.7s3.5-1,5.6-1.1s2.3,2.1,2.3,2.1
  l0.5,3.9c0,0,0.5-0.6,2.7-2.4c1.9-1.5,3.9-1.4,4.4-1.3l0,0L25.8,28z" />
</svg>
